<svg width="300" height="300" viewBox="0 0 300 300" fill="none" xmlns="http://www.w3.org/2000/svg">
<path d="M300 150C300 232.843 232.843 300 150 300C67.1573 300 0 232.843 0 150C0 67.1573 67.1573 0 150 0C232.843 0 300 67.1573 300 150Z" fill="url(#paint0_linear_95_2)"/>
<path d="M118.661 110.714L128.276 120.419L95.0855 151.107L128.276 180.581L118.661 190.286L75 151.107L118.661 110.714Z" fill="#34C759"/>
<path d="M204.986 151.107L171.724 120.419L180.556 110L225 151.107L180.556 191L171.724 180.581L204.986 151.107Z" fill="#34C759"/>
<defs>
<linearGradient id="paint0_linear_95_2" x1="0" y1="0" x2="300" y2="300" gradientUnits="userSpaceOnUse">
<stop offset="1" stop-color="#202227"/>
<stop stop-color="#1D1E23"/>
</linearGradient>
</defs>
</svg>
